<svg viewBox="0 0 166 141" xmlns="http://www.w3.org/2000/svg">
<path d="M82.4778 79.9757C81.169 75.3019 79.1309 74.6579 72.6867 77.9041C69.849 79.3795 68.9696 80.5268 68.4027 82.8886C68.3785 82.9897 68.3872 83.0981 68.4264 83.1944C69.831 86.6383 71.2494 87.9579 76.7323 87.355C76.9442 87.3317 77.2756 87.4267 77.3709 87.6186L77.9176 88.8813C78.0192 89.0858 77.5397 89.8585 77.3709 90.0114C77.2646 90.1078 77.2038 92.1879 77.2038 92.332C77.2038 92.5672 77.0432 92.7721 76.8155 92.825C73.9373 93.4937 72.1968 93.6323 70.1733 93.4984C69.663 93.4646 69.4106 94.1152 69.8336 94.4045C73.6466 97.0128 76.6171 97.2971 82.5065 94.315C88.1024 91.0808 89.6485 88.7202 89.2833 84.5529C89.2408 84.0669 88.6044 83.957 88.3554 84.3756C87.2387 86.2525 86.0286 87.4881 83.508 89.0774C83.3216 89.1949 83.082 89.1732 82.9106 89.0345C82.1112 88.3879 81.9359 88.1709 80.8121 88.0627C80.6297 88.0451 80.0032 87.8844 79.9252 87.7175L79.4218 86.6406C79.3288 86.4418 79.3744 86.2051 79.5312 86.0522C81.3099 84.3172 82.081 83.0299 82.4915 80.1845C82.5014 80.1157 82.4966 80.0426 82.4778 79.9757Z" />
<path d="M0.262235 67.6275C-1.45714 56.6071 10.3116 50.632 13.6157 49.1842C13.9817 49.0238 14.3476 49.3536 14.2635 49.7465C11.6663 61.8742 11.7377 69.0354 14.3116 81.2197C14.3838 81.5617 14.109 81.8711 13.7688 81.8003C11.1574 81.2571 1.97141 78.5826 0.262235 67.6275Z" />
<path d="M86.2563 45.1408C69.7908 45.1408 70.3814 54.3098 70.4561 55.0517C70.4597 55.0871 70.4603 55.1144 70.459 55.1499C70.438 55.718 70.4281 60.8817 77.0028 60.8817C83.7408 60.8817 86.1069 65.7025 86.2494 66.0066C86.2541 66.0166 86.2576 66.0251 86.2616 66.0355C86.3862 66.3561 88.7264 72.112 96.3076 72.4464C104.029 72.787 104.437 60.3298 104.444 60.0823C104.445 60.0746 104.444 60.0832 104.445 60.0755C104.461 59.8274 105.407 44.5463 86.2563 45.1408Z" />
<path d="M86.1976 0.418104C73.7761 -1.1668 63.9757 9.6421 61.1824 13.1063C60.891 13.4678 61.2123 13.9666 61.665 13.8713C75.3107 10.9993 83.7773 12.1292 98.8521 19.0753C99.1706 19.222 99.5373 19.0109 99.5455 18.6584C99.622 15.3883 99.1313 2.06837 86.1976 0.418104Z" />
<path d="M48.1254 140.228C34.0317 139.526 32.6038 124.518 32.49 120.087C32.4784 119.634 33.0437 119.403 33.3932 119.689C35.2596 121.214 40.0561 124.327 48.1254 124.327C52.1181 124.327 54.7196 122.99 57.2737 122.109C57.3028 122.099 57.3309 122.087 57.3578 122.072C64.1451 118.26 72.58 118.004 72.3263 125.683C72.3239 125.755 72.3105 125.819 72.2769 125.882C71.6274 127.114 63.9377 141.016 48.1254 140.228Z" />
<path d="M105.721 138.783C126.222 138.787 133.005 118.266 123.943 67.6425C123.85 67.1271 123.129 67.0738 122.964 67.5703C112.624 98.5895 113.689 101.118 85.1977 117.616C85.0642 117.693 84.9662 117.834 84.944 117.987C83.7343 126.316 85.1835 130.348 91.2754 136.448C91.3314 136.504 91.4024 136.547 91.4775 136.572C96.9289 138.343 100.061 138.86 105.721 138.783Z" />
<path d="M165.071 99.4305C164.027 69.1645 152.732 52.7229 124.254 25.8406C123.819 25.4298 123.149 25.9959 123.469 26.5028C139.699 52.2118 148.231 77.5401 134.646 113.258C134.634 113.29 134.625 113.323 134.619 113.358L134.618 113.368C134.08 116.721 132.907 124.034 135.396 126.576C145.994 134.753 165.818 121.077 165.071 99.4305Z" />
<path d="M42.6962 65.0118C49.4083 59.2073 52.8219 58.101 57.9643 61.9466C59.926 63.6835 60.4852 64.5027 60.4497 65.3588C60.4385 65.631 60.3877 65.9011 60.3508 66.171C59.9736 68.9293 57.875 70.9964 56.571 74.4961C56.2773 75.2845 56.2491 76.1424 56.4096 76.9682C57.4933 82.5411 58.5249 86.0767 58.0437 89.5557C57.9977 89.8879 57.9055 90.2129 57.7807 90.5242C56.0767 94.7717 54.214 96.0651 49.5206 96.1841C41.3237 95.8919 35.4772 88.8421 34.5716 82.6156C34.5002 82.1245 34.4726 81.2463 34.5716 80.76C35.9747 73.8698 37.8014 70.3077 42.6962 65.0118Z" />
</svg>
