<svg viewBox="0 0 170 162" fill="#FAFEFF" xmlns="http://www.w3.org/2000/svg">
<g>
<path d="M48.7181 83.8825C36.1253 81.4009 35.0467 74.1227 35.0769 71.5241C35.0842 70.8982 35.1444 70.2719 35.2416 69.6535C35.751 66.4127 39.0106 55.3773 59.869 46.5568C69.1838 43.4845 77.6901 56.6509 74.9154 64.0517C74.8572 64.2068 74.7932 64.349 74.7199 64.4975C73.5819 66.8012 63.2686 86.7499 48.7181 83.8825Z"/>
<path d="M121.763 83.8825C134.356 81.4009 135.435 74.1227 135.404 71.5241C135.397 70.8982 135.337 70.2719 135.24 69.6535C134.73 66.4127 131.471 55.3773 110.612 46.5568C101.298 43.4845 92.7912 56.6509 95.5659 64.0517C95.6241 64.2068 95.688 64.349 95.7614 64.4975C96.8994 66.8012 107.213 86.7499 121.763 83.8825Z"/>
<path d="M25.1605 10.1704C38.8868 0.00370312 46.3599 -0.633659 56.9791 11.441C58.1995 12.8287 58.0126 14.935 56.6268 16.1577L24.7601 44.2754C23.3308 45.5366 21.1398 45.4071 19.9277 43.936C9.91317 31.7825 9.64695 23.989 25.1605 10.1704Z"/>
<path d="M144.888 10.1704C131.161 0.0036993 123.688 -0.633663 113.069 11.441C111.849 12.8287 112.036 14.935 113.421 16.1577L145.288 44.2754C146.717 45.5366 148.908 45.4071 150.121 43.936C160.135 31.7825 160.401 23.989 144.888 10.1704Z"/>
<path d="M46.8981 149.602C42.2402 149.978 -8.06101 152.753 11.8967 95.4688C12.8876 92.6246 16.472 92.6267 17.0957 95.5733C19.5507 107.17 18.501 117.013 49.1354 116.776C70.3805 114.983 72.693 131.338 72.8797 133.095C72.8912 133.202 72.8929 133.306 72.8896 133.414C72.3515 151.105 50.7059 149.874 47.6081 149.607C47.3551 149.585 47.1512 149.582 46.8981 149.602Z"/>
<path d="M123.082 149.602C127.74 149.978 178.041 152.753 158.083 95.4688C157.093 92.6246 153.508 92.6267 152.884 95.5733C150.43 107.17 151.479 117.013 120.845 116.776C99.5996 114.983 97.2872 131.338 97.1005 133.095C97.089 133.202 97.0873 133.306 97.0906 133.414C97.6287 151.105 119.274 149.874 122.372 149.607C122.625 149.585 122.829 149.582 123.082 149.602Z"/>
<path d="M87.6614 100.82C86.2895 102.336 83.9085 102.336 82.5365 100.82L77.0982 94.8107C75.0875 92.5888 76.6641 89.0356 79.6607 89.0356L90.5372 89.0356C93.5338 89.0356 95.1104 92.5888 93.0997 94.8107L87.6614 100.82Z"/>
</g>
<defs>
<filter id="filter0_dii" x="0.323261" y="-0.992541" width="169.334" height="162.246" filterUnits="userSpaceOnUse" color-interpolation-filters="sRGB">
<feFlood flood-opacity="0" result="BackgroundImageFix"/>
<feColorMatrix in="SourceAlpha" type="matrix" values="0 0 0 0 0 0 0 0 0 0 0 0 0 0 0 0 0 0 127 0"/>
<feOffset dy="4.60804"/>
<feGaussianBlur stdDeviation="3.45603"/>
<feColorMatrix type="matrix" values="0 0 0 0 0 0 0 0 0 0 0 0 0 0 0 0 0 0 0.3 0"/>
<feBlend mode="normal" in2="BackgroundImageFix" result="effect1_dropShadow"/>
<feBlend mode="normal" in="SourceGraphic" in2="effect1_dropShadow" result="shape"/>
<feColorMatrix in="SourceAlpha" type="matrix" values="0 0 0 0 0 0 0 0 0 0 0 0 0 0 0 0 0 0 127 0" result="hardAlpha"/>
<feOffset dy="4.60804"/>
<feGaussianBlur stdDeviation="3.45603"/>
<feComposite in2="hardAlpha" operator="arithmetic" k2="-1" k3="1"/>
<feColorMatrix type="matrix" values="0 0 0 0 1 0 0 0 0 1 0 0 0 0 1 0 0 0 0.4 0"/>
<feBlend mode="normal" in2="shape" result="effect2_innerShadow"/>
<feColorMatrix in="SourceAlpha" type="matrix" values="0 0 0 0 0 0 0 0 0 0 0 0 0 0 0 0 0 0 127 0" result="hardAlpha"/>
<feOffset dy="-3.45603"/>
<feGaussianBlur stdDeviation="2.30402"/>
<feComposite in2="hardAlpha" operator="arithmetic" k2="-1" k3="1"/>
<feColorMatrix type="matrix" values="0 0 0 0 0 0 0 0 0 0 0 0 0 0 0 0 0 0 0.51 0"/>
<feBlend mode="normal" in2="effect2_innerShadow" result="effect3_innerShadow"/>
</filter>
</defs>
</svg>
